<?xml version="1.0" standalone="no"?>
<!DOCTYPE svg PUBLIC "-//W3C//DTD SVG 20010904//EN"
 "http://www.w3.org/TR/2001/REC-SVG-20010904/DTD/svg10.dtd">
<svg version="1.0" xmlns="http://www.w3.org/2000/svg"
 width="1024.000000pt" height="1024.000000pt" viewBox="0 0 1024.000000 1024.000000"
 preserveAspectRatio="xMidYMid meet">
<metadata>
Created by potrace 1.14, written by Peter Selinger 2001-2017
</metadata>
<g transform="translate(0.000000,1024.000000) scale(0.100000,-0.100000)"
fill="#000000" stroke="none">
<path d="M4762 10066 c-87 -68 -168 -131 -178 -140 -10 -8 -138 -108 -284
-222 -146 -113 -267 -208 -270 -211 -3 -3 6 -2 20 2 13 4 42 9 64 10 50 4 27
-11 -29 -18 -22 -3 -83 -16 -135 -28 -52 -12 -124 -28 -160 -35 -36 -8 -78
-19 -95 -24 -16 -6 -70 -22 -120 -36 -189 -54 -406 -132 -610 -219 -22 -10
-41 -17 -42 -17 -6 2 -340 -172 -418 -217 -318 -185 -617 -417 -849 -660 -34
-35 -77 -80 -96 -100 -19 -20 -51 -57 -70 -81 -19 -25 -37 -47 -40 -50 -24
-20 -230 -311 -230 -324 0 -3 -21 -38 -47 -78 -25 -40 -45 -74 -44 -76 0 -1
-15 -34 -34 -72 -19 -38 -35 -72 -35 -75 1 -3 -8 -22 -19 -43 -11 -20 -31 -68
-46 -107 -14 -38 -30 -80 -35 -92 -11 -27 -1 -30 22 -5 28 31 73 69 96 81 12
6 22 18 22 27 0 8 17 22 38 31 20 10 52 30 70 45 18 16 41 28 51 28 10 0 29
17 42 38 13 20 29 37 34 37 6 0 35 18 64 40 30 22 74 55 100 72 25 18 61 45
79 60 19 16 43 32 55 36 12 4 48 46 81 92 32 47 66 93 75 104 9 11 25 30 35
43 238 291 557 559 931 781 118 69 404 212 495 246 l55 21 -32 -28 c-17 -15
-43 -36 -58 -46 -23 -17 -38 -29 -80 -64 -6 -5 -39 -30 -75 -58 -36 -27 -67
-51 -70 -54 -3 -3 -36 -30 -75 -60 -402 -313 -678 -529 -698 -545 -7 -6 -43
-35 -82 -65 -38 -30 -74 -58 -80 -62 -5 -5 -37 -29 -71 -56 -33 -26 -76 -59
-95 -74 -19 -15 -79 -62 -134 -105 -55 -42 -102 -80 -105 -83 -3 -3 -32 -25
-65 -50 -32 -25 -105 -81 -160 -125 -56 -44 -115 -90 -131 -102 -16 -12 -40
-31 -54 -42 -104 -82 -272 -214 -396 -311 -81 -63 -195 -152 -253 -198 -58
-46 -119 -94 -136 -107 -16 -12 -97 -75 -180 -139 -82 -64 -159 -125 -170
-134 -11 -10 -39 -33 -62 -51 l-43 -33 1 -71 0 -72 165 -120 c91 -66 175 -128
187 -137 12 -10 27 -21 32 -25 6 -5 62 -46 125 -93 63 -46 120 -88 125 -92 13
-11 228 -168 229 -168 2 0 -2 165 -4 170 -1 3 -2 23 -3 45 -2 22 -6 46 -11 53
-4 8 -10 30 -11 50 -2 20 -4 40 -4 43 -1 4 -91 73 -201 155 -158 117 -198 151
-188 160 14 12 281 221 338 264 19 14 42 33 52 43 10 9 20 17 23 17 3 0 16 9
28 20 12 12 55 46 97 78 41 31 80 61 87 67 6 5 24 20 40 32 27 20 517 404 538
420 6 5 39 31 75 58 36 28 67 52 70 55 3 3 37 30 75 60 39 30 75 58 80 63 6 4
62 48 125 98 147 115 167 130 193 151 32 25 28 23 196 153 85 66 213 166 285
223 72 57 156 122 186 146 30 23 152 119 271 212 119 93 229 179 245 191 16
12 40 31 54 42 14 11 62 49 106 83 71 55 322 252 364 285 85 68 222 174 241
187 14 9 50 19 80 22 30 3 61 7 69 9 8 1 38 5 65 9 28 4 61 10 75 12 14 2 61
6 105 10 44 3 112 9 150 14 108 11 604 8 755 -6 179 -16 262 -25 277 -29 23
-8 2 21 -25 33 -83 38 -132 78 -132 106 0 14 -23 30 -77 55 -12 6 -29 22 -39
36 -9 14 -21 25 -26 25 -11 0 -81 51 -86 63 -16 36 -25 37 -362 34 -182 -2
-326 0 -322 4 4 4 82 65 173 137 l166 130 129 -95 c129 -95 169 -125 204 -153
10 -8 28 -22 40 -30 38 -26 582 -429 605 -447 18 -15 696 -517 718 -533 22
-14 138 -100 167 -123 8 -7 49 -37 90 -67 41 -30 77 -57 80 -60 3 -3 29 -23
59 -44 30 -21 59 -43 65 -48 9 -7 302 -224 487 -361 54 -39 331 -245 426 -316
56 -42 156 -115 221 -164 128 -94 421 -311 437 -324 6 -4 19 -15 29 -23 18
-14 18 -13 11 10 -4 14 -16 36 -25 50 -10 14 -21 42 -24 62 -5 35 -25 77 -63
134 -8 14 -13 27 -10 31 8 7 -23 65 -76 146 -11 15 -20 33 -21 40 -6 35 -45
69 -273 238 -136 101 -249 187 -251 191 -2 5 -7 8 -12 8 -4 0 -86 58 -181 129
-96 72 -207 154 -247 183 -40 29 -78 58 -85 63 -7 6 -91 69 -187 140 -96 71
-240 178 -318 237 -79 60 -148 108 -152 108 -5 0 -10 3 -12 8 -3 7 -130 103
-438 329 -69 51 -129 96 -135 101 -5 4 -80 59 -165 122 -85 63 -167 123 -181
135 -15 11 -37 28 -50 37 -13 9 -141 104 -284 210 -143 107 -276 204 -295 218
-19 13 -37 27 -40 30 -3 3 -55 42 -116 88 l-111 82 -76 0 -75 0 -160 -124z
m-205 -510 c4 -3 -9 -6 -28 -7 -19 0 -45 -2 -59 -4 -14 -2 -65 -8 -113 -14
-48 -6 -92 -13 -97 -16 -5 -3 -11 -2 -14 3 -3 5 0 9 7 10 7 0 32 6 57 12 25 7
66 12 92 11 26 0 57 3 70 8 24 9 75 7 85 -3z m106 7 c-13 -2 -35 -2 -50 0 -16
2 -5 4 22 4 28 0 40 -2 28 -4z m-433 -42 c0 -9 -60 -24 -68 -17 -2 3 11 9 29
15 19 5 35 10 37 10 1 1 2 -3 2 -8z m-364 -409 c-3 -4 -38 -18 -78 -30 -160
-47 -213 -61 -216 -57 -2 2 40 17 95 33 78 24 180 55 201 61 2 1 1 -3 -2 -7z
m-376 -122 c-20 -13 -33 -13 -25 0 3 6 14 10 23 10 15 0 15 -2 2 -10z m-40 -8
c0 -13 -72 -44 -110 -48 -31 -3 -28 -1 20 17 30 12 59 25 65 30 11 11 25 12
25 1z"/>
<path d="M6085 9490 c-2 -4 4 -15 15 -25 11 -10 20 -15 20 -11 0 9 23 -10 58
-48 15 -15 44 -37 65 -47 20 -11 37 -23 37 -28 0 -5 28 -23 63 -39 34 -17 84
-51 109 -76 26 -25 49 -46 51 -46 3 0 22 -16 43 -35 21 -19 43 -35 50 -35 18
0 65 -40 74 -64 5 -15 25 -28 57 -38 46 -16 289 -111 322 -127 9 -5 84 -41
166 -82 124 -60 303 -163 419 -239 308 -202 599 -472 835 -775 4 -6 16 -24 27
-40 10 -17 21 -32 24 -35 3 -3 26 -36 50 -75 60 -92 69 -107 77 -125 4 -8 9
-17 12 -20 12 -10 147 -294 155 -325 2 -5 7 -19 11 -30 29 -71 44 -115 40
-115 -3 0 2 -17 10 -37 15 -41 54 -191 60 -233 2 -14 6 -38 9 -55 23 -137 29
-215 29 -380 0 -112 -5 -223 -13 -270 -7 -44 -14 -91 -14 -105 -1 -14 -5 -31
-10 -38 -4 -7 -6 -16 -3 -18 3 -3 -4 -37 -14 -77 -14 -56 -15 -68 -3 -53 7 11
14 23 14 28 0 4 7 8 15 8 8 0 15 5 15 10 0 6 6 10 13 10 8 0 22 9 32 20 10 11
23 20 30 20 7 0 26 13 43 30 17 16 43 32 57 36 14 3 25 10 25 14 0 4 11 10 23
14 35 8 97 57 163 128 12 13 29 28 39 33 36 21 31 348 -10 625 -3 25 -10 61
-15 80 -5 19 -11 49 -14 65 -8 45 -35 142 -58 209 -11 32 -21 63 -23 70 -2 13
-7 24 -53 141 -36 93 -136 293 -190 380 -17 28 -43 70 -58 95 -30 49 -184 258
-230 311 -101 116 -137 154 -224 239 -53 52 -123 118 -155 145 -32 28 -74 64
-94 81 -69 59 -298 227 -311 228 -3 0 -14 8 -25 19 -11 10 -29 23 -40 28 -11
5 -40 23 -65 39 -25 16 -54 34 -65 39 -11 6 -47 26 -80 46 -67 40 -412 212
-435 217 -8 2 -17 5 -20 8 -3 3 -39 18 -80 34 -41 16 -88 34 -105 42 -125 54
-517 170 -720 213 -82 18 -167 36 -188 40 -20 5 -39 5 -42 1z"/>
<path d="M5617 8704 c-1 -1 -23 -4 -48 -7 -61 -7 -159 -48 -217 -91 -49 -36
-92 -80 -92 -95 0 -5 -6 -14 -14 -20 -7 -6 -21 -37 -29 -69 -88 -314 342 -546
693 -374 99 48 194 162 206 247 2 11 5 30 8 42 6 30 -18 115 -47 166 -56 94
-179 172 -307 193 -38 6 -148 12 -153 8z"/>
<path d="M4830 8220 c-192 -23 -348 -146 -432 -340 -19 -43 -22 -52 -32 -100
-3 -11 -7 -24 -10 -28 -7 -11 -16 -58 -22 -107 -7 -66 -9 -257 -3 -261 3 -2 5
-21 5 -44 -1 -22 1 -40 5 -40 3 0 6 -6 6 -12 1 -24 36 -133 60 -188 61 -134
165 -277 272 -374 19 -17 42 -38 50 -46 31 -29 146 -116 179 -135 17 -11 32
-23 32 -27 0 -4 5 -8 10 -8 6 0 29 -12 53 -27 62 -39 208 -115 213 -110 2 2
-6 15 -19 28 -37 37 -213 273 -244 326 -15 27 -31 51 -36 54 -4 3 -9 13 -11
21 -1 8 -11 28 -21 44 -21 30 -45 80 -44 91 1 3 -3 9 -8 12 -11 7 -43 83 -69
161 -21 65 -18 53 -29 115 -10 59 -7 220 4 220 2 0 4 7 6 16 12 65 88 155 168
202 78 46 191 54 322 22 69 -16 277 -109 283 -126 2 -5 9 -9 15 -9 21 0 145
-119 168 -160 20 -35 25 -38 43 -28 12 6 23 14 26 17 22 26 221 128 343 176
62 24 183 58 247 70 14 3 35 7 47 9 12 3 53 8 90 11 37 4 71 9 74 11 4 2 2 23
-3 46 -5 24 -12 54 -14 67 -3 14 -19 54 -37 89 -60 120 -164 187 -296 191 -61
2 -74 -2 -142 -38 -89 -48 -229 -96 -319 -109 -62 -10 -203 -9 -245 1 -164 39
-273 102 -383 222 -64 71 -88 83 -171 91 -31 3 -60 6 -66 8 -5 1 -35 -1 -65
-4z"/>
<path d="M2970 8027 c-3 -3 -23 -7 -46 -10 -137 -19 -279 -125 -322 -239 -23
-61 -21 -151 3 -197 8 -17 13 -31 10 -31 -8 0 26 -41 75 -90 39 -39 170 -121
170 -106 0 3 17 -2 38 -11 53 -22 220 -27 301 -7 83 19 171 66 222 118 40 42
84 106 73 106 -4 0 -1 6 5 14 25 30 6 226 -21 226 -5 0 -7 4 -4 8 9 14 -85
108 -139 139 -55 32 -123 59 -170 68 -43 8 -190 17 -195 12z"/>
<path d="M3870 7996 c-87 -13 -151 -43 -197 -92 -18 -19 -33 -37 -33 -39 0 -3
0 -8 -1 -12 -1 -5 -1 -58 0 -120 1 -157 -27 -235 -118 -335 -101 -110 -318
-188 -526 -188 -63 0 -95 -14 -145 -61 -37 -35 -80 -94 -84 -115 -3 -11 -9
-30 -14 -44 -9 -23 -8 -61 2 -114 17 -86 106 -203 235 -308 12 -10 25 -18 29
-18 5 0 17 -8 28 -18 41 -37 177 -113 314 -176 113 -51 331 -114 455 -132 28
-3 59 -8 70 -11 95 -18 392 -18 537 2 38 5 109 16 133 22 11 2 34 6 50 9 87
15 471 131 462 140 -1 2 -144 5 -317 8 -173 3 -328 7 -345 10 -16 2 -57 7 -90
10 -200 19 -408 64 -564 125 -213 82 -343 258 -288 390 41 98 236 217 427 262
25 6 54 13 65 16 11 3 71 7 134 9 63 2 116 6 118 8 3 2 -1 24 -8 47 -13 47
-14 54 -24 144 -8 70 -8 59 -1 155 8 108 60 274 105 331 l21 27 -48 16 c-26 9
-58 19 -72 22 -14 3 -41 9 -60 14 -20 5 -65 12 -100 16 -35 3 -67 7 -70 8 -3
2 -39 -2 -80 -8z"/>
<path d="M6699 7576 c-2 -2 -31 -6 -64 -9 -33 -3 -103 -15 -155 -27 -552 -122
-969 -438 -1130 -856 -15 -41 -26 -74 -24 -74 3 0 0 -9 -6 -20 -24 -45 -68
-320 -51 -320 5 0 21 19 36 43 31 47 132 182 155 207 8 9 35 41 60 70 49 59
194 207 250 255 70 60 129 105 137 105 4 0 21 11 37 25 44 38 222 121 301 140
133 33 291 23 383 -24 102 -52 160 -167 156 -311 -3 -123 -59 -272 -125 -336
l-29 -28 67 -18 c38 -10 78 -21 91 -24 66 -14 282 -111 349 -156 23 -15 44
-28 48 -28 9 0 141 -107 180 -146 34 -34 35 -34 67 -19 33 14 68 35 78 45 3 3
23 18 45 34 97 71 154 158 155 232 0 71 -49 144 -112 164 -248 82 -415 220
-456 380 -23 90 10 219 89 341 16 25 29 55 29 65 0 37 -52 124 -98 165 -37 33
-132 88 -162 94 -11 3 -86 18 -105 21 -31 6 -191 14 -196 10z"/>
<path d="M7596 7289 c-334 -85 -443 -396 -202 -577 243 -183 653 -116 777 127
33 63 34 187 2 247 -90 170 -349 261 -577 203z"/>
<path d="M9346 6979 c8 -21 17 -63 20 -91 4 -29 10 -54 15 -56 4 -2 6 -9 3
-17 -3 -7 1 -26 9 -42 10 -19 12 -35 6 -51 -5 -13 -6 -28 -3 -34 4 -6 8 -24 9
-41 2 -16 9 -33 16 -38 8 -4 88 -62 178 -129 159 -119 163 -122 145 -140 -11
-10 -161 -129 -334 -265 -173 -135 -322 -251 -330 -258 -8 -7 -44 -35 -80 -62
-36 -27 -121 -94 -190 -148 -153 -121 -132 -104 -270 -212 -63 -50 -122 -96
-130 -102 -8 -7 -85 -67 -170 -133 -85 -66 -162 -126 -170 -133 -8 -7 -87 -68
-175 -137 -88 -69 -167 -130 -175 -137 -8 -7 -51 -40 -95 -75 -95 -74 -268
-209 -420 -328 -60 -48 -204 -160 -320 -251 -115 -90 -217 -169 -225 -176 -13
-10 -196 -153 -225 -175 -43 -34 -193 -151 -205 -161 -8 -7 -52 -41 -97 -76
-46 -35 -83 -65 -83 -67 0 -2 12 4 28 12 15 7 50 14 77 14 28 0 68 7 90 15 22
8 54 14 70 14 l30 -1 -30 -9 c-16 -5 -41 -10 -55 -13 -14 -2 -32 -7 -40 -10
-8 -3 -26 -8 -40 -10 -23 -4 -95 -18 -160 -31 -64 -12 -139 -25 -175 -30 -22
-2 -51 -7 -65 -10 -43 -8 -131 -17 -340 -34 -103 -9 -706 -6 -730 3 -8 3 -49
8 -90 11 -103 7 -159 13 -200 21 -19 3 -48 8 -65 10 -16 2 -42 6 -57 10 -54
11 -30 -14 81 -84 20 -12 45 -26 56 -31 12 -5 27 -16 35 -26 7 -9 26 -23 41
-31 15 -7 30 -22 33 -31 5 -16 72 -53 96 -53 9 0 46 -31 92 -77 l27 -27 318 0
c314 -1 498 8 652 29 41 6 77 11 160 20 33 4 93 13 136 21 110 21 143 27 160
30 11 1 43 8 70 14 28 6 61 13 75 15 14 3 70 16 125 30 55 15 111 29 124 31
14 3 28 7 32 10 4 2 47 16 96 29 48 14 95 28 103 32 8 3 20 7 25 9 90 26 321
117 490 194 70 32 308 151 320 160 6 4 27 17 48 29 20 12 54 31 75 42 129 73
411 274 537 383 242 209 414 395 577 621 71 100 138 202 138 212 0 3 6 14 14
22 23 27 145 269 139 275 -4 3 0 6 7 6 7 0 10 3 7 6 -4 4 0 19 7 33 28 52 64
149 59 155 -4 3 -2 6 4 6 5 0 10 6 10 13 0 6 3 23 8 37 7 24 7 24 -11 9 -11
-9 -29 -20 -41 -23 -11 -4 -24 -13 -27 -21 -3 -8 -12 -15 -20 -15 -8 0 -18 -9
-21 -20 -4 -11 -23 -29 -44 -39 -20 -11 -56 -38 -79 -60 -23 -23 -46 -41 -51
-41 -5 0 -12 -11 -15 -24 -4 -17 -21 -30 -58 -46 -29 -12 -73 -42 -98 -66 -61
-61 -129 -114 -145 -114 -7 0 -15 -7 -19 -15 -3 -8 -20 -22 -39 -31 -18 -9
-44 -32 -57 -52 -14 -21 -28 -41 -33 -47 -26 -34 -65 -87 -82 -111 -11 -15
-33 -44 -50 -63 -16 -20 -41 -49 -55 -66 -45 -55 -264 -272 -335 -332 -166
-139 -338 -263 -530 -378 -81 -49 -332 -179 -402 -208 -140 -59 -208 -86 -210
-83 -2 2 40 36 93 77 52 41 104 81 114 89 10 8 35 29 55 45 34 27 60 47 181
140 21 17 50 40 64 53 14 12 28 22 32 22 4 0 15 8 25 18 10 10 47 40 83 67 36
27 67 52 70 55 5 5 421 332 478 375 25 18 487 380 522 408 9 7 33 25 55 41 22
17 42 33 45 36 3 4 41 34 85 68 44 34 96 74 115 90 19 15 120 93 225 175 104
81 196 152 203 158 36 30 172 137 317 249 88 68 174 135 191 149 16 14 45 37
63 51 35 26 171 132 231 180 19 15 59 47 88 69 28 23 52 50 52 60 0 11 -39 47
-107 97 -153 113 -453 335 -622 461 -80 60 -152 111 -161 115 -16 6 -16 3 -4
-33z m-2506 -3324 c0 -2 -21 -11 -47 -19 -27 -8 -79 -26 -118 -40 -99 -35
-316 -98 -321 -93 -2 2 24 12 58 22 35 11 73 25 86 33 12 8 25 12 28 9 4 -3
28 3 55 13 27 11 49 17 49 15 0 -3 23 6 50 20 28 14 50 23 50 21 0 -2 21 2 48
9 55 15 62 17 62 10z"/>
<path d="M1241 6825 c-23 -25 -46 -45 -51 -45 -5 0 -20 -10 -34 -22 -14 -13
-50 -41 -81 -62 -30 -22 -55 -43 -55 -47 0 -5 -15 -16 -32 -25 -18 -9 -35 -20
-38 -24 -3 -4 -20 -15 -37 -24 -18 -9 -33 -21 -33 -26 0 -5 -13 -16 -28 -25
-33 -20 -35 -34 -34 -220 1 -145 8 -256 21 -332 6 -32 13 -74 15 -93 7 -51 15
-88 32 -150 8 -30 16 -64 18 -75 17 -106 176 -496 253 -617 13 -21 20 -38 16
-38 -5 0 -3 -4 3 -8 9 -6 24 -29 79 -120 37 -62 171 -242 254 -342 63 -76 313
-325 386 -386 33 -27 62 -52 65 -55 15 -16 229 -175 320 -236 256 -172 630
-363 935 -476 90 -34 335 -115 366 -121 13 -3 65 -17 114 -31 50 -14 102 -28
117 -30 15 -2 36 -6 47 -10 11 -3 28 -7 38 -9 10 -3 49 -11 86 -20 38 -9 76
-16 85 -15 15 0 -32 23 -90 45 -10 3 -20 14 -23 23 -3 9 -22 25 -42 36 -45 24
-50 28 -130 105 -35 33 -76 66 -93 75 -17 9 -47 34 -67 55 -19 22 -38 38 -42
35 -4 -2 -24 10 -44 28 -70 63 -124 94 -242 141 -215 85 -534 252 -719 376
-13 8 -43 28 -67 44 -40 26 -116 83 -129 96 -3 3 -32 25 -65 50 -32 25 -67 52
-75 60 -9 8 -34 30 -56 49 -94 80 -253 243 -339 346 -22 26 -44 53 -50 59 -21
23 -95 125 -95 131 0 4 -6 13 -12 20 -27 29 -35 42 -89 130 -30 50 -73 126
-94 170 -22 44 -44 83 -50 87 -5 4 -7 8 -3 8 4 0 -8 33 -26 73 -31 68 -80 197
-91 242 -3 11 -19 72 -35 135 -16 63 -32 131 -34 150 -28 200 -36 292 -36 393
0 54 5 141 11 195 6 53 12 112 13 130 0 17 4 32 7 32 3 0 5 10 4 23 -1 12 7
55 17 96 11 44 16 77 10 83 -5 5 -26 -10 -51 -37z"/>
<path d="M2795 6536 c-120 -67 -245 -186 -245 -230 0 -9 -5 -16 -11 -16 -10 0
-8 -77 3 -121 12 -47 58 -86 135 -114 277 -101 429 -258 427 -440 -1 -63 -23
-145 -55 -201 -9 -17 -23 -42 -31 -55 -7 -13 -16 -26 -20 -29 -60 -46 42 -212
167 -273 95 -47 161 -60 300 -61 72 0 148 2 170 6 184 31 395 95 541 165 74
35 207 108 229 125 6 5 39 30 75 57 109 82 231 212 302 323 52 81 136 266 144
318 4 21 12 55 14 55 5 0 33 181 35 224 1 39 -1 42 -12 25 -33 -48 -168 -230
-177 -240 -6 -7 -27 -31 -46 -55 -19 -24 -93 -102 -165 -174 -134 -133 -267
-237 -365 -284 -30 -14 -57 -29 -60 -33 -3 -4 -47 -21 -97 -38 -156 -52 -337
-50 -442 4 -96 50 -154 165 -153 301 1 140 59 300 129 354 l24 20 -43 12 c-86
23 -174 51 -205 65 -17 8 -34 14 -38 14 -9 0 -155 67 -175 80 -8 6 -26 16 -40
23 -14 6 -29 15 -35 19 -114 84 -155 117 -181 142 -57 57 -56 57 -99 32z"/>
<path d="M5928 6365 c-2 -1 -30 -5 -63 -9 -132 -13 -281 -43 -420 -82 -114
-33 -252 -81 -267 -93 -4 -3 102 -6 235 -6 289 0 504 -13 657 -39 19 -3 46 -8
60 -10 199 -33 443 -118 497 -172 8 -8 18 -14 22 -14 4 0 26 -18 48 -40 74
-76 108 -178 83 -254 -20 -63 -139 -162 -233 -197 -20 -7 -37 -16 -37 -20 0
-4 -10 -9 -22 -12 -13 -3 -54 -15 -93 -26 -120 -36 -175 -45 -287 -44 -62 0
-86 -3 -81 -11 4 -6 8 -15 9 -21 1 -5 8 -37 16 -70 9 -38 14 -105 12 -180 -1
-113 -5 -144 -21 -205 -3 -14 -7 -28 -7 -32 -1 -3 -4 -10 -8 -14 -5 -4 -8 -13
-8 -21 0 -7 -16 -45 -35 -84 -19 -39 -35 -72 -35 -74 0 -2 37 -13 83 -24 45
-12 89 -25 97 -28 15 -5 79 -12 162 -17 125 -7 267 56 301 134 6 14 10 68 8
120 -1 52 2 115 8 140 7 25 13 52 15 61 21 84 128 199 236 251 106 51 203 74
360 83 100 7 146 26 189 82 10 12 22 19 27 15 5 -4 6 -3 2 2 -4 5 4 24 19 42
14 19 23 34 20 34 -3 0 1 19 8 43 30 101 -21 223 -147 348 -61 60 -202 161
-278 199 -25 12 -52 28 -60 34 -22 18 -203 92 -305 124 -83 27 -249 63 -355
78 -46 6 -406 15 -412 9z"/>
<path d="M5020 6191 c0 -5 4 -11 9 -13 5 -1 34 -34 65 -73 31 -38 60 -75 65
-81 5 -6 36 -51 70 -100 33 -49 64 -93 68 -99 17 -22 67 -115 112 -210 80
-165 104 -258 102 -390 0 -52 -3 -77 -15 -120 -20 -76 -108 -173 -193 -212
-49 -23 -72 -27 -148 -27 -102 0 -121 3 -222 38 -83 28 -185 82 -259 137 -50
37 -154 145 -154 161 0 15 -23 8 -56 -17 -18 -14 -37 -25 -42 -25 -6 0 -12 -4
-14 -8 -8 -21 -326 -166 -355 -163 -2 0 -21 -6 -44 -14 -23 -9 -51 -17 -63
-19 -102 -21 -138 -27 -186 -31 -105 -10 -100 -6 -84 -77 33 -140 78 -219 159
-275 74 -51 220 -72 280 -41 125 67 275 123 361 134 91 12 217 5 295 -15 128
-33 264 -120 357 -229 50 -59 98 -75 226 -75 135 1 251 45 342 130 43 40 117
136 119 153 1 3 8 19 17 35 17 32 55 150 63 194 2 14 7 42 11 61 7 39 7 246
-1 300 -30 210 -136 409 -314 589 -84 85 -250 221 -271 221 -5 0 -10 3 -10 8
0 4 -9 12 -19 17 -11 6 -55 30 -98 54 -156 89 -173 96 -173 82z"/>
<path d="M2498 5964 c-2 -1 -25 -4 -53 -7 -172 -19 -317 -106 -378 -230 -22
-44 -25 -63 -23 -127 3 -92 23 -138 89 -203 82 -80 185 -123 320 -133 108 -8
206 10 302 56 140 67 221 175 219 295 0 66 -24 139 -54 167 -10 10 -22 24 -27
31 -12 20 -84 72 -128 94 -57 29 -253 71 -267 57z"/>
<path d="M1434 5459 c5 -16 13 -29 17 -29 3 0 6 -10 5 -22 -2 -28 35 -138 57
-172 10 -14 17 -32 17 -41 0 -8 4 -15 9 -15 5 0 14 -15 22 -32 7 -18 16 -35
19 -38 24 -21 80 -100 85 -123 4 -15 24 -40 43 -55 20 -15 43 -32 52 -39 8 -6
83 -61 165 -122 83 -61 155 -114 160 -118 6 -5 26 -20 45 -34 77 -56 235 -174
240 -179 3 -3 21 -17 40 -30 19 -13 148 -108 285 -210 325 -242 546 -406 615
-455 30 -22 57 -42 60 -45 3 -3 21 -17 40 -30 19 -13 37 -27 40 -30 3 -3 43
-33 90 -68 47 -34 195 -145 330 -245 135 -100 331 -245 435 -322 105 -77 197
-145 205 -152 8 -7 80 -60 160 -119 80 -59 217 -160 304 -226 145 -107 163
-118 202 -118 46 0 4 -31 559 405 105 82 238 186 298 232 59 46 107 86 107 88
0 5 -37 -2 -48 -8 -4 -3 -23 -8 -42 -11 -44 -7 -77 -14 -115 -23 -16 -4 -50
-8 -75 -9 -64 -3 -264 -25 -268 -29 -2 -2 -15 0 -27 5 -20 8 -38 -2 -128 -73
-57 -45 -116 -91 -132 -102 -15 -11 -33 -26 -41 -33 -7 -7 -35 -29 -61 -49
-26 -19 -53 -39 -58 -44 -6 -4 -37 12 -72 39 -33 26 -71 55 -84 64 -13 9 -71
52 -129 95 -58 43 -244 182 -415 308 -170 126 -315 234 -322 240 -6 5 -28 21
-48 35 -31 22 -146 107 -215 159 -23 17 -331 246 -389 288 -13 10 -153 114
-310 230 -157 117 -295 219 -306 227 -40 30 -211 156 -230 171 -11 9 -63 47
-115 86 -52 38 -106 78 -120 89 -14 10 -110 82 -215 159 -104 77 -194 144
-200 148 -5 5 -132 99 -281 209 -223 166 -269 196 -260 173z"/>
<path d="M7050 5240 c-8 -4 -42 -18 -75 -30 -80 -31 -144 -75 -191 -133 -57
-69 -73 -198 -37 -287 6 -14 8 -29 5 -35 -3 -5 -2 -7 3 -3 4 4 20 -10 35 -30
35 -49 96 -97 154 -123 25 -11 48 -20 51 -20 2 0 22 -7 42 -16 53 -22 236 -27
306 -7 45 13 65 20 87 29 3 2 15 6 28 10 12 4 22 11 22 16 0 5 6 9 13 9 15 0
107 85 107 99 0 6 8 15 18 20 9 6 14 11 10 11 -4 0 1 18 11 39 51 115 -12 274
-146 368 -88 62 -292 108 -380 86 -23 -6 -43 -7 -45 -3 -2 4 -10 4 -18 0z"/>
<path d="M4447 4564 c-162 -38 -297 -159 -324 -292 -25 -120 36 -246 155 -325
88 -58 127 -66 294 -66 155 1 210 10 263 45 14 9 25 14 25 11 0 -4 10 4 23 16
12 13 31 29 43 37 33 24 92 121 103 170 17 78 -1 165 -50 236 -98 144 -325
215 -532 168z"/>
<path d="M4 2361 c-2 -2 -4 -535 -4 -1183 l0 -1178 5120 0 5120 0 -2 1182 -3
1183 -5113 0 c-2813 0 -5116 -2 -5118 -4z"/>
</g>
</svg>
